<svg width="1800" height="690" viewBox="0 0 1800 690" fill="none" xmlns="http://www.w3.org/2000/svg">
<path d="M163.1 689.82V684.17H1324.9V689.82H163.1Z" fill="#4682B4"/>
<path d="M539.22 431.18C534.62 435.32 534.21 440.23 532.17 444.38C531.9 444.92 532.03 445.66 532 446.31C531.92 448.22 532.12 450.06 531.11 451.95C530.49 453.12 530.47 455.19 531.13 456.31C531.96 457.73 531.8 459.06 532.02 460.47C532.66 464.54 534.34 467.98 538.18 470.01C541.56 471.8 544.93 470.75 546.98 467.19C547.67 465.99 548.2 464.69 548.99 463.04V444.19C551.53 443.77 554.11 444.17 556.79 443.95C556.88 444.65 556.99 445.11 556.99 445.57C557 448.9 556.83 452.24 557.05 455.56C557.24 458.58 557.85 461.57 558.37 465.28C559.28 466.34 560.47 468.11 562.02 469.46C564.59 471.7 567.43 471.44 570.18 469.38C573.08 467.22 574.41 464 574.85 460.84C575.46 456.43 575.42 451.81 574.87 447.38C574.44 443.92 572.93 440.56 571.68 437.24C570.94 435.26 569.77 433.44 568.62 431.2H575.67C578.82 433.35 579.7 437.26 580.86 440.71C582.05 444.24 582.26 448.12 582.88 451.85C583.17 453.59 583.89 455.8 582.09 457.47C581.83 457.71 581.98 458.42 582 458.91C582.21 465.26 579.65 470.35 575 474.51C574.5 474.95 574.05 475.45 573.58 475.92C571.17 475.91 569.04 477.15 566.53 477.15C564.02 477.15 561.88 475.86 559.05 475.98C557.19 473.53 555.18 470.89 553.23 468.32C550.2 476.15 543.77 478.03 535.23 476.71C534.62 476.31 533.48 475.5 532.27 474.78C527.55 471.98 525.89 467.41 525 462.38C524.7 460.68 524.21 459 524.04 457.29C523.87 455.64 524 453.96 524 452.3C524 450.97 523.82 449.6 524.04 448.31C524.41 446.17 525.21 444.09 525.51 441.94C525.88 439.26 528.04 437.31 528.15 434.48C528.19 433.5 529.66 432.58 530.87 431.18H539.22Z" fill="#4682B4"/>
<path d="M1093.9 435.89H1117.19C1119.56 429.79 1121.95 423.63 1124.45 417.19H1132.26C1129 427.69 1124.46 437.46 1120.7 447.49C1117 457.39 1113.24 467.35 1108.58 476.95H1102.4C1099.71 470.94 1097.15 464.72 1094.96 458.33C1093.62 454.41 1091.75 450.68 1090.32 446.78C1088.25 441.15 1085.98 435.6 1083.95 429.96C1082.45 425.77 1080.52 421.74 1078.58 417.18C1081.52 416.84 1084.09 417.08 1086.79 416.98C1089.21 423.43 1091.59 429.75 1093.89 435.89H1093.9ZM1097 442.09C1097 443.34 1096.71 444.31 1097.04 444.98C1100.67 452.34 1102.11 460.5 1105.54 468.42C1108.81 459.47 1111.95 450.9 1115.17 442.1H1097V442.09Z" fill="#4682B4"/>
<path d="M359 548.74C359.74 547.48 360.46 546.45 360.98 545.32C363.91 538.95 368.74 535.28 375.69 533.85C378.26 533.32 380.74 533.01 383.3 533C391.43 532.98 399.57 533 407.85 533V539H399.62C393.12 539 386.62 538.84 380.13 539.05C375.4 539.2 371.17 541.01 367.98 544.6C366.77 545.96 366.07 547.79 365.07 549.51C364.68 551.55 365.67 553.96 363.99 555.92C364.75 559.9 365.12 563.92 366.91 567.71C368.44 570.94 371.44 572.1 374.13 573.42C376.27 574.47 378.84 575.07 381.46 575.04C390.12 574.93 398.78 575 407.72 575V581C398.53 581 389.22 581.49 379.98 580.84C373.31 580.37 366.89 577.93 362.71 572.1C361.22 570.02 359.98 567.45 359.59 564.95C359.01 561.2 356.56 557.54 358.88 553.44C359.59 552.18 358.99 550.17 358.99 548.74H359Z" fill="#4682B4"/>
<path d="M447.9 373H441.14C441.91 371.32 442.59 369.73 443.34 368.18C449.56 355.28 455.79 342.39 462.02 329.49C462.69 328.1 463.33 326.7 464.04 325.19H468.83C476.42 340.81 484.15 356.72 491.97 372.8H484.96C478.88 360.18 472.91 347.01 466.48 333.25C460.14 346.82 454.09 359.78 447.92 372.99L447.9 373Z" fill="#4682B4"/>
<path d="M606.4 325.11H611.07C614.82 332.99 618.55 340.95 622.37 348.86C626.19 356.77 630.09 364.64 634.07 372.76H627.11C626.78 372.2 626.33 371.55 626 370.84C623.65 365.82 621.33 360.79 618.99 355.77C616.59 350.61 614.17 345.45 611.77 340.28C610.8 338.18 609.87 336.07 608.58 333.18C602.18 346.86 596.14 359.78 590.05 372.81H583.88C584.11 371.78 584.14 370.81 584.52 370.03C586.82 365.32 589.45 360.76 591.5 355.94C595.96 345.43 601.51 335.46 606.4 325.13V325.11Z" fill="#4682B4"/>
<path d="M982.51 488.88H977.38C976.44 487.88 974.82 486.78 974.07 485.26C971.15 479.31 968.29 473.35 966.88 466.74C966.26 463.85 966.66 460.84 965.83 458.19C964.96 455.42 965.38 452.74 964.95 450.07C964.37 446.41 966.23 443.09 966.06 439.49C965.9 436.17 968.11 433.21 968 429.83C970.71 424.98 971.92 419.37 975.51 414.95C975.88 414.49 976 413.83 976.25 413.22H982.31C981.1 415.75 980.23 418.07 978.95 420.14C976.69 423.81 976.21 428.01 974.97 431.99C972.04 441.4 972.97 451.06 973.12 460.64C973.18 464.46 974.72 468.25 975.55 472.07C976.8 477.86 979.47 483.09 982.51 488.89V488.88Z" fill="#4682B4"/>
<path d="M679.88 488.97H674.1C675.78 485.45 677.64 482.17 678.94 478.68C680.45 474.59 682.08 470.47 682.01 465.97C684.05 463.62 682.17 460.56 683.44 458.08C684.72 455.57 683.82 452.91 683.97 450.32C684.29 444.67 683.15 439.15 681.96 433.69C680.41 426.56 678.02 419.71 673.89 413.26H679.87C684.17 419.43 687.33 426.23 689.06 433.77C690.21 438.79 691.18 443.77 691.01 448.93C690.93 451.26 690.76 453.62 691.06 455.91C691.41 458.6 690.02 460.95 690.04 463.49C690.07 465.96 688.82 468.01 688.32 470.27C687.28 475.03 685.45 479.4 682.99 483.56C681.96 485.3 680.96 487.07 679.87 488.96L679.88 488.97Z" fill="#4682B4"/>
<path d="M1181.78 413.16H1187.77C1190.3 416.25 1192.64 419.66 1194.1 423.79C1195.29 427.14 1196.78 430.38 1197.4 433.9C1197.92 436.85 1199.04 439.67 1199.02 442.73C1198.98 447.89 1199.17 453.06 1198.96 458.21C1198.74 463.72 1197.58 469.04 1195.42 474.21C1193.88 477.92 1192.55 481.7 1190.38 485.11C1189.53 486.45 1188.66 487.77 1187.95 488.85H1182.95C1183.02 487.91 1182.82 486.99 1183.17 486.38C1187.07 479.55 1188.46 474.97 1190.08 468.74C1192.29 460.24 1192.59 451.61 1191.79 443.09C1191.12 435.89 1189.67 428.62 1186.47 421.88C1185.1 418.99 1184.41 415.78 1181.76 413.16H1181.78Z" fill="#4682B4"/>
<path d="M427.36 413.02H432.93C429.99 417.34 428.09 421.92 426.76 426.74C425.63 430.81 424.65 434.89 423.82 439.05C422.65 444.96 423.1 450.8 423.07 456.65C423.05 461.54 424.46 466.3 425.48 471.09C426.29 474.92 427.96 478.41 429.05 482.12C429.43 483.42 430.55 484.48 431.18 485.73C431.64 486.65 431.86 487.69 432.26 488.89H426.71C426.57 488.68 425.65 487.81 425.32 486.76C424.25 483.32 421.7 480.72 420.45 477.27C419.24 473.95 417.96 470.53 417.22 467.17C416.48 463.8 415.6 460.29 415.93 456.64C416.27 452.84 416.03 448.99 416 445.16C415.94 437.62 418.06 430.59 421 423.75C422.16 421.05 423.64 418.51 425.04 415.94C425.65 414.83 426.63 413.92 427.37 413.02H427.36Z" fill="#4682B4"/>
<path d="M1562.92 517.14H1568.64C1572.34 520.64 1574.28 525.26 1575.98 529.99C1576.77 532.17 1577.19 534.48 1578.03 536.63C1579.26 539.76 1579.56 543.12 1579.85 546.32C1580.38 552.1 1580.49 558.02 1579.85 563.77C1579.26 569.13 1578.13 574.56 1575.88 579.56C1573.98 583.78 1571.77 587.86 1569.77 591.86H1563.05C1566.65 586.89 1568.36 581.36 1570.11 575.76C1571.53 571.22 1571.69 566.51 1572.88 561.95C1573.57 559.3 1573.21 556.3 1572.95 553.5C1572.7 550.81 1574.1 547.9 1572.03 545.4C1571.87 545.2 1571.99 544.75 1572.01 544.42C1572.29 539.24 1570.49 534.46 1568.93 529.7C1567.52 525.38 1566.27 520.89 1562.93 517.13L1562.92 517.14Z" fill="#4682B4"/>
<path d="M57.1001 660.85V655.16H139.75V660.85H57.1001Z" fill="#4682B4"/>
<path d="M710.17 18.5499C713.78 20.5799 717.4 22.6099 721.24 24.7699C720.34 26.2599 719.47 27.6999 718.47 29.3699C714.66 27.0899 711.1 24.9499 707.3 22.6799C708.53 26.8699 707.74 30.7199 708.02 34.4699C707.61 34.8799 707.25 35.2399 706.73 35.7599C705.13 36.1599 703.41 36.4999 701.78 34.1299C702.07 30.8099 702.39 27.0099 702.77 22.6899C698.97 24.9399 695.42 27.0499 691.79 29.1999C690.76 27.6799 689.83 26.2999 688.79 24.7599C692.5 22.6699 696.1 20.6399 700 18.4499C696.28 16.3899 692.63 14.3599 688.78 12.2199C689.74 10.7999 690.68 9.40994 691.8 7.76994C695.24 9.84994 698.69 11.9399 702.49 14.2399C702.68 13.5899 703.12 12.9399 702.95 12.5699C701.42 9.29994 702.18 5.84994 701.97 2.52994C702.38 2.11994 702.73 1.76994 703.25 1.24994C704.85 0.849941 706.57 0.509942 708.02 2.60994C707.6 6.15994 708.8 10.0399 707 14.4399C711.02 12.0599 714.56 9.95994 718.42 7.66994C719.4 9.20994 720.3 10.6099 721.35 12.2499C717.52 14.4099 713.92 16.4399 710.16 18.5599L710.17 18.5499Z" fill="#4682B4"/>
<path d="M988.13 310C990.49 310 992.48 310 994.48 310C996.4 316.04 997.55 322.29 999.7 328.27C1000.74 331.18 1001.25 334.28 1002 337.3C1003.42 343.01 1004.82 348.71 1006.7 354.3C1007.63 357.07 1008.2 360 1008.9 362.85C1010.43 369.15 1012.1 375.4 1014.01 381.82H1007.44C1001.07 358.11 994.65 334.22 988.14 310H988.13Z" fill="#4682B4"/>
<path d="M1508.32 277.99H1502.04C1501.39 275.97 1500.55 273.82 1500.03 271.6C1498.39 264.66 1496.54 257.78 1494.47 250.96C1493.57 248 1492.84 244.97 1492.12 241.98C1490.82 236.54 1489.32 231.14 1487.86 225.75C1486.93 222.34 1486.32 218.81 1485.04 215.47C1484.38 213.74 1484.04 211.89 1483.59 210.08C1483.29 208.88 1483.07 207.66 1482.77 206.19H1488.95C1495.31 229.77 1501.75 253.66 1508.32 277.99Z" fill="#4682B4"/>
<path d="M1135.26 381.89H1128.53C1122.09 357.95 1115.69 334.17 1109.25 310.24H1115.71C1117.76 316.24 1118.11 322.73 1120.99 328.5C1121.71 335.85 1124.63 342.66 1126.18 349.83C1127.18 354.46 1128.36 359.17 1130.04 363.66C1131.3 367.01 1131.83 370.55 1132.81 373.96C1133.53 376.46 1134.37 378.98 1135.25 381.9L1135.26 381.89Z" fill="#4682B4"/>
<path d="M1070.63 381.88H1064.23C1070.65 358.02 1077.03 334.29 1083.51 310.23H1089.9C1083.5 334.02 1077.12 357.76 1070.64 381.88H1070.63Z" fill="#4682B4"/>
<path d="M949.48 381.98H943.18C949.61 358.05 956.03 334.21 962.48 310.2H968.95C966.6 319.23 964.02 327.97 961.85 336.84C960.68 341.62 959.59 346.51 957.91 351.15C956.69 354.53 956.15 358.04 955.08 361.44C953.41 366.76 952.25 372.24 950.85 377.65C950.5 378.99 950.02 380.31 949.49 381.98H949.48Z" fill="#4682B4"/>
<path d="M231.71 231.62C235.36 229.54 238.73 227.61 242.12 225.68C238.28 223.6 234.62 221.61 230.91 219.6C232.11 217.96 233.22 216.43 234.32 214.93C237.55 217.05 240.56 219.04 243.59 220.98C243.81 221.12 244.23 220.97 244.55 220.95C245.37 215.06 245.23 212.06 243.9 209.27H250.01V221.48C253.79 219.14 257.06 217.11 260.61 214.92C261.49 216.37 262.35 217.77 263.4 219.49C259.74 221.6 256.3 223.59 252.27 225.92C254.42 227.13 256.06 228.12 257.77 228.99C259.41 229.83 261.12 230.54 262.8 231.31C264.26 233.95 260.55 234.63 260.82 236.9C257.22 234.62 253.75 232.43 250.12 230.13V242.92C247.95 242.79 245.81 243.91 244.23 241.76C245.82 237.96 244.58 234.09 245.12 230.02C240.74 231.68 238.01 235.69 233.37 236.16C232.77 234.52 232.23 233.07 231.7 231.63L231.71 231.62Z" fill="#4682B4"/>
<path d="M460.17 62.0801H534.82V67.7501H460.17V62.0801Z" fill="#4682B4"/>
<path d="M496.1 382.83V379.18H578.9V382.83H496.1Z" fill="#4682B4"/>
<path d="M652.89 459.52C653.49 461.84 656.15 463.26 656.06 466.09C656.03 467.1 657.11 468.23 656.91 469.15C656.43 471.39 655.94 473.85 654.65 475.64C653.4 477.38 651.57 478.82 649.69 480.18C647.61 481.68 645 479.78 643.44 481.94C641.68 480.42 639.03 481.31 637.36 479.8C635.32 477.97 633.12 476.16 632.07 473.54C628.21 463.87 636.61 455.5 644.83 456.08C646.75 456.22 648.62 457.29 650.48 458.02C651.18 458.29 651.77 458.81 652.89 459.52ZM651.97 466.05C650.09 464.16 648.58 462.64 647.04 461.1H640.4C638.89 462.61 637.47 464.03 636.15 465.35V472.45C638.87 476.24 642.27 477.65 645.89 476.99C651.97 474.8 652.49 470.35 651.97 466.05Z" fill="#4682B4"/>
<path d="M1331.59 584.09H1338.36C1350.39 593.61 1371.02 593.48 1382.37 584.13H1388.17C1387.37 587.06 1385.23 588.63 1383.19 589.94C1377.15 593.82 1370.64 596.44 1363.24 596.01C1362.08 595.94 1360.89 595.87 1359.75 596.02C1353.84 596.79 1348.38 594.93 1343.05 592.9C1340.48 591.92 1338.21 590.05 1335.96 588.37C1334.51 587.29 1333.34 585.82 1331.6 584.08L1331.59 584.09Z" fill="#4682B4"/>
<path d="M447 480.85C445.6 479.65 443.98 478.34 442.45 476.93C440.72 475.34 439.83 473.39 439.97 470.96C440.1 468.81 440 466.64 440 464.51C442.4 461.07 444.5 457.34 449.33 457C452.28 454.48 455.12 456.58 457.82 457.43C460.65 458.32 462.71 460.55 463.74 463.31C465.47 467.95 465.93 472.5 462.04 476.58C460.39 478.31 457.32 481.25 455.46 480.81C453.93 480.45 453.24 482.61 451.58 481.29C450.64 480.54 448.77 480.97 446.99 480.84L447 480.85ZM459.78 472.46C460.24 470.94 460.69 469.45 461.1 468.09C460.1 466.13 459.18 464.35 458.43 462.89C455.18 460.16 451.68 461.26 448.19 460.95C446.73 462.87 445.29 464.78 444.11 466.33C443.46 471.42 444.87 475.02 450.04 476.96H455.54C456.92 475.49 458.4 473.93 459.78 472.46Z" fill="#4682B4"/>
<path d="M693.88 531.83H687.3C676.58 522.77 656.17 522.57 644.6 531.87H638.44C641.07 527.94 642.05 526.97 646.22 525.03C648.58 523.93 650.56 521.91 653.45 521.95C653.97 521.95 654.47 521.13 655.04 521.03C657.38 520.61 659.74 520.19 662.11 520.03C664.6 519.86 667.11 519.82 669.59 520.03C677.22 520.66 684.4 522.6 690.31 527.84C691.61 528.99 693.48 529.63 693.87 531.83H693.88Z" fill="#4682B4"/>
<path d="M1038.06 531.81H1031.69C1033.73 529.78 1035.37 527.96 1037.2 526.35C1039.11 524.68 1046.16 521.61 1048.94 521C1052.22 520.27 1064.37 519.33 1066.97 520.06C1073.05 521.76 1082.79 524.37 1088.01 531.81H1081.94C1079.01 530.16 1076.47 528.08 1073.56 527.23C1069.5 526.05 1065.34 525.11 1061 524.9C1055.92 524.66 1051.11 525.69 1046.43 527.21C1043.53 528.15 1040.98 530.16 1038.05 531.81H1038.06Z" fill="#4682B4"/>
<path d="M1580.25 269.15H1617.9V275.82H1580.25V269.15Z" fill="#4682B4"/>
<path d="M297.17 165.08H333.57C333.97 165.48 334.33 165.84 334.84 166.35V171.77H297.17V165.08Z" fill="#4682B4"/>
<path d="M581.09 38.8299V33.1699H621.72V38.8299H581.09Z" fill="#4682B4"/>
<path d="M1388.9 655.17V660.83H1348.09V655.17H1388.9Z" fill="#4682B4"/>
<path d="M876.25 136H901.58C901.92 136.42 902.33 136.93 902.91 137.66V142.84H876.25V136Z" fill="#4682B4"/>
<path d="M1439.83 142.93H1413.19V137.27C1413.42 137.08 1413.92 136.66 1414.63 136.08H1438.57C1438.96 136.47 1439.31 136.82 1439.83 137.34V142.93Z" fill="#4682B4"/>
<path d="M387.25 136.15H412.9V142.82H387.25V136.15Z" fill="#4682B4"/>
<path d="M501.7 549.97H499.56C499.39 549.76 499.03 549.53 499.03 549.29C498.93 541 501.82 533.89 507.57 527.94C510.36 525.05 513.19 522.22 516.95 520.53C519.65 519.32 522.27 518.1 525.36 517.91C527.49 517.77 529.52 516.32 532.18 517.43C531.87 518.54 531.56 519.67 531.14 521.16C527.06 520.32 523.73 521.91 520.32 523.01C517.61 523.88 515.19 525.21 513.12 527.31C509.74 530.74 506.24 534.02 504.7 538.78C504.08 540.69 503.1 542.44 502.95 544.55C502.82 546.38 502.14 548.17 501.71 549.96L501.7 549.97Z" fill="#4682B4"/>
<path d="M606.12 520.98V517.14C609.97 516.48 613.41 517.9 616.74 519.07C621.65 520.8 626.33 523.23 629.76 527.31C633.17 531.38 636.11 535.8 637.56 541.03C637.64 541.32 637.98 541.57 637.99 541.84C638.09 544.4 637.54 547.03 640.09 549.69C637.82 549.85 636.6 549.94 635.06 550.05C635.38 541.86 632.28 534.97 626.83 529.5C621.37 524.02 614.64 520.51 606.13 520.98H606.12Z" fill="#4682B4"/>
<path d="M1226.67 549.9H1224.33C1222.82 542.46 1221.03 535.35 1215.32 529.64C1209.7 524.03 1203.34 520.97 1196.83 520.94C1195.12 520.18 1194.35 519.83 1193.25 519.34C1194.28 518.26 1194.81 517.69 1195.71 516.75C1199.24 517.56 1203.12 518.14 1206.77 519.37C1210.94 520.78 1214.15 523.99 1217.78 526.4C1219.61 527.61 1225.63 537.56 1225.84 539.42C1226.23 542.86 1227.97 546.22 1226.66 549.9H1226.67Z" fill="#4682B4"/>
<path d="M895.9 549.88H893.02C892.71 542.21 894.92 535.53 899.76 529.77C904.36 524.3 907.2 522.11 912.9 519.65C914.73 518.86 916.57 517.96 918.69 517.95C919.57 517.95 920.44 517.38 921.33 517.17C923.15 516.74 924.88 516.72 926.15 518.92C925.68 519.56 925.13 520.31 924.6 521.02C919.27 520.68 914.64 522.4 910.2 524.98C905.62 527.64 897.6 536.9 897.15 541.53C896.87 544.42 895.61 547.03 895.88 549.89L895.9 549.88Z" fill="#4682B4"/>
<path d="M1119.86 517.22V520.9C1111.72 520.43 1104.83 523.94 1099.25 529.46C1093.75 534.9 1091.21 542.04 1090.87 549.91H1087.36C1088.55 537.59 1091.62 531.82 1097.64 526.02C1103.55 520.32 1112.84 516.99 1119.87 517.23L1119.86 517.22Z" fill="#4682B4"/>
<path d="M1031.91 549.96H1029.24C1028.73 542.2 1026.43 534.76 1020.65 529.39C1015.09 524.22 1008.6 520.07 1000.15 521.06V517.1C1008.71 517.26 1016.42 520.26 1022.44 526.17C1028.79 532.41 1032.79 540.14 1031.91 549.96Z" fill="#4682B4"/>
<path d="M1632.18 344.08H1658.83V349.69C1658.9 349.62 1658.79 349.75 1658.66 349.84C1658.53 349.92 1658.37 349.99 1658.23 349.99C1649.61 349.99 1640.98 349.99 1632.18 349.99V344.07V344.08Z" fill="#4682B4"/>
<path d="M755.09 38.8399V33.1599H780.74V38.8399H755.09Z" fill="#4682B4"/>
<path d="M1074.83 38.92H1049.17V33.32C1049.11 33.38 1049.22 33.24 1049.35 33.15C1049.48 33.07 1049.64 33 1049.78 33C1058.07 33 1066.36 33 1074.82 33V38.92H1074.83Z" fill="#4682B4"/>
<path d="M1260.09 38.8299V33.1699H1285.72V38.8299H1260.09Z" fill="#4682B4"/>
<path d="M1698.06 363.71C1700.56 364.51 1702.93 362.9 1704.6 365.09C1703.62 373.08 1701.51 380.71 1698.02 387.87C1697.21 387.93 1696.73 387.98 1696.26 387.99C1695.62 388.01 1694.98 387.99 1694.49 387.99C1694.22 387.7 1694.02 387.58 1694.02 387.46C1694 386.13 1693.66 384.69 1694.06 383.49C1696.17 377.23 1695.64 370.42 1698.06 363.7V363.71Z" fill="#4682B4"/>
<path d="M144.08 387.98H140.46C140.3 387.69 140 387.41 140.02 387.15C140.11 385.1 139.77 383.09 140.9 381.06C141.77 379.49 140.12 377.16 141.93 375.53C142.1 375.38 142.05 374.89 141.99 374.58C141.33 370.98 143.6 367.75 142.92 364.1H150.03C150.05 372.58 147.35 380.25 144.08 387.98Z" fill="#4682B4"/>
<path d="M1164 447.93C1162.73 449.2 1161.23 450.7 1159.97 451.96C1157.28 452.08 1155.12 452.05 1153.13 450.67C1151.09 449.26 1151.07 446.87 1150 445C1151.08 442.95 1151.15 440.32 1153.49 439C1155.38 437.94 1157.43 437.87 1159.58 438.03C1161.06 439.1 1162.6 440.21 1164 441.23V447.92V447.93Z" fill="#4682B4"/>
<path d="M615.07 445.02C613.92 448.05 613 450.96 609.49 451.79C605.87 452.34 602.58 451.85 601.04 446.71C600.82 444.92 600.76 442.25 602.8 439.65C605.03 438.52 607.14 437.28 610.43 438.67C613.54 439.99 613.56 442.72 615.07 445.02Z" fill="#4682B4"/>
<path d="M1048.04 449.39C1046.28 445.2 1045.88 440.99 1051.37 438.13C1056.61 437.97 1058.91 439.2 1060.55 443.04C1061.56 445.42 1060.91 447.56 1058.7 449.83C1055.32 453.3 1051.94 451.89 1048.05 449.38L1048.04 449.39Z" fill="#4682B4"/>
<path d="M1777.31 468.1H1784.73C1783.51 471.98 1783.29 475.95 1782.24 479.8C1781.22 483.53 1779.7 487.07 1778.86 490.89H1774.38C1772.82 488.28 1774.97 485.99 1775.05 483.51C1775.13 480.99 1775.63 478.48 1776 475.98C1776.37 473.48 1776.82 470.99 1777.3 468.09L1777.31 468.1Z" fill="#4682B4"/>
<path d="M137.73 490.89H132.88C133.58 483.23 135.92 475.93 136.08 468.18H144.12C142.55 472.08 142.16 476.07 141.21 479.93C140.28 483.72 138.82 487.24 137.73 490.89Z" fill="#4682B4"/>
<path d="M496.36 438.2C499.14 437.67 501.23 437.98 502.82 439.41C504.08 440.55 505.26 442 505.92 443.54C506.67 445.29 505.37 449.24 502.04 451.01C498.56 452.86 496.86 452.35 492.15 447.64V443.04C492.58 440.05 495.27 439.75 496.36 438.19V438.2Z" fill="#4682B4"/>
<path d="M4.86996 594.98H0.469967C0.309967 594.7 -3.41233e-05 594.41 0.0199659 594.16C0.319966 590.99 0.189966 587.66 1.17997 584.7C1.76997 582.94 1.75997 581.3 2.01997 579.6C2.39997 577.12 2.88997 574.67 3.35997 572.09H11.19C8.71996 574.29 11.31 577.46 8.99997 579.56C9.28997 582.35 7.76996 584.66 7.00996 587.18C6.25996 589.68 5.61996 592.22 4.86996 594.98Z" fill="#4682B4"/>
<path d="M99.1902 414.63C100.33 415.77 101.23 416.67 102.19 417.63C100.8 420.38 99.4802 422.99 98.0002 425.91V434.76C95.8202 435.28 93.5702 434.85 91.3602 435.04C90.4402 425.16 91.9402 421.16 99.1902 414.63Z" fill="#4682B4"/>
<path d="M1395.66 642.92C1393.03 643.42 1392.21 641.56 1390.85 640.22C1392.17 637.65 1393.5 635.05 1395.12 631.88V623.1H1400.6C1400.96 623.46 1401.31 623.81 1401.86 624.36C1402.77 631.37 1399.97 637.33 1395.65 642.92H1395.66Z" fill="#4682B4"/>
<path d="M1798.82 416.17C1800.29 425.52 1795.79 432.97 1791.55 435.96C1790.34 435.19 1789.15 434.44 1787.77 433.57C1789.16 430.85 1791.05 428.39 1791.67 425.64C1792.34 422.68 1791.82 419.45 1791.82 416.17H1798.81H1798.82Z" fill="#4682B4"/>
<path d="M629.03 1.02002H633.51C633.99 1.50002 634.46 1.97002 634.93 2.44002C635.55 9.60002 633.46 15.82 628.7 20.9C625.85 21.63 625.27 19.31 623.81 18.38C625.29 15.9 626.56 13.78 627.83 11.66C628.62 8.25002 626.9 4.51002 629.02 1.02002H629.03Z" fill="#4682B4"/>
<path d="M989.09 123.89H982.21C981.13 116.09 983.13 109.42 989.45 104.14C990.63 104.86 991.89 105.63 993.56 106.65C989.02 111.71 988.5 117.65 989.09 123.88V123.89Z" fill="#4682B4"/>
<path d="M864.92 103.53C865.82 104.38 866.44 105.11 867.2 105.65C867.76 106.06 868.48 106.23 869.62 106.72C868.52 107.89 867.44 108.56 867.06 109.51C866.03 112.11 864.41 114.53 864.93 117.63C865.26 119.56 864.99 121.58 864.99 123.78H858.11V114.65C860.07 111.1 861.68 107.04 864.92 103.53Z" fill="#4682B4"/>
<path d="M51.8198 621.76C53.2398 622.95 54.2198 623.78 55.4798 624.84C52.8798 630.2 49.8998 635.38 51.2098 641.77H43.7798C44.2298 638.28 44.6798 634.85 45.0998 631.63C47.1198 628.1 48.6498 624.43 51.8198 621.76Z" fill="#4682B4"/>
<path d="M17.65 520.09H24.78C25.89 528.01 23.82 534.68 17.6 539.84C16.42 538.99 15.21 538.13 13.77 537.09C17.25 532.13 19.06 526.67 17.65 520.09Z" fill="#4682B4"/>
<path d="M976.39 331.98C974.09 332.51 973.29 330.62 972.05 329.45C976.19 324.41 977.55 318.54 976.92 312.1H982.74C983.83 319.8 982.77 326.75 976.4 331.98H976.39Z" fill="#4682B4"/>
<path d="M1137.5 1.02002H1140.56C1141.24 1.80002 1142 2.68002 1142.77 3.56002C1138.93 8.10002 1137.43 13.57 1138.05 19.82H1131.21C1130.3 16.49 1132.2 13.3 1132.55 9.95002C1132.93 6.29002 1135.86 4.03002 1137.5 1.02002Z" fill="#4682B4"/>
<path d="M1097.06 332.21C1095.63 331.35 1094.3 330.55 1092.88 329.71C1097.11 324.53 1098.86 318.81 1097.84 312.18H1103.69C1104.82 319.65 1104.1 326.69 1097.05 332.21H1097.06Z" fill="#4682B4"/>
<path d="M423.83 125.46C422.79 124.22 421.96 123.24 420.79 121.85C422.87 116.77 426.41 111.57 424.69 105.11H430.61C431.67 114.96 430.25 119.44 423.82 125.46H423.83Z" fill="#4682B4"/>
<path d="M1378.29 123.91H1372.25C1371.04 116.1 1372.83 109.37 1378.88 103.65C1380.03 104.69 1381.08 105.64 1382.39 106.82C1380.1 112.17 1376.75 117.28 1378.29 123.91Z" fill="#4682B4"/>
<path d="M1202.57 0.189941C1203.53 1.23994 1204.61 2.42994 1205.78 3.70994C1202.08 8.13994 1200.58 13.5799 1201.05 19.7999H1195.12V10.6599C1197.17 6.75994 1198.67 2.63994 1202.57 0.189941Z" fill="#4682B4"/>
<path d="M364.02 162.52V158.1C365.69 157.01 367.52 155.83 369.38 154.62C371.03 155.52 372.38 156.25 373.56 156.89C374.08 158.46 374.51 159.77 375.06 161.4C374.02 162.85 372.84 164.5 371.8 165.97H367.49C366.42 164.9 365.36 163.84 364.03 162.51L364.02 162.52Z" fill="#4682B4"/>
<path d="M573.85 53.5399C574.99 55.7199 576.1 58.0499 573.67 60.4399C571.17 62.4999 568.27 62.5299 565.27 60.7599C563.56 58.3599 563.58 55.8799 565.4 53.2099C567.87 51.6899 570.66 51.1999 573.85 53.5399Z" fill="#4682B4"/>
<path d="M147.37 683.1C146.45 680.56 144.83 678.55 147 676.48C146.8 673.13 150.52 674.88 151.34 673.29C152.41 673.62 153.44 673.94 154.65 674.31C155.34 675.36 156.19 676.67 157.02 677.93C156.19 681.1 156 681.42 153.25 684.25C151.43 683.89 149.42 683.5 147.37 683.1Z" fill="#4682B4"/>
<path d="M1481.39 570.84C1483.66 574.29 1483.39 577.02 1480.92 579.6C1479.84 579.95 1478.68 580.32 1477.64 580.66C1476.64 580.37 1475.62 580.08 1474.37 579.73C1473.68 578.38 1472.84 576.74 1471.85 574.82C1472.92 573.26 1474.08 571.58 1475.36 569.71C1477.51 570.12 1479.52 570.49 1481.39 570.85V570.84Z" fill="#4682B4"/>
<path d="M1006.26 52.03H1010.54C1011.27 52.76 1011.97 53.46 1012.84 54.33V59.68C1012.2 60.28 1011.36 61.07 1010.41 61.96H1005.4C1004.81 61.25 1004.08 60.37 1003.09 59.18V54.3C1003.69 53.87 1004.62 53.21 1006.26 52.03Z" fill="#4682B4"/>
<path d="M214.58 270.08C212.95 268.9 211.41 267.79 209.7 266.55C210.11 264.42 210.5 262.42 210.88 260.49C213 259.59 214.62 258.51 217.21 259.48C219.89 260.48 219.7 262.83 220.83 264.51C219.75 267.4 217.61 269.27 214.58 270.09V270.08Z" fill="#4682B4"/>
<path d="M1338.17 684.32C1336.15 683.88 1334.17 683.45 1332.45 683.07C1330.29 679.61 1330.62 676.76 1333.41 674.11H1338.1C1339.36 675.37 1340.62 676.62 1342.02 678.01C1342.16 680.49 1340.4 682.17 1338.17 684.33V684.32Z" fill="#4682B4"/>
<path d="M919.96 154.69C921.87 156.01 923.43 157.09 925.26 158.36C924.86 160.57 924.48 162.7 924.16 164.51C920.61 166.71 917.76 166.41 915.1 163.6V158.25C916.41 157.29 918.04 156.1 919.96 154.69Z" fill="#4682B4"/>
<path d="M544.48 62.43C543.04 60.36 541.96 58.81 540.73 57.06C541.9 55.32 543.04 53.62 544.11 52.04H549.55C551.96 54.41 553.17 57.09 550.21 61.02C549 61.32 546.9 61.84 544.48 62.43Z" fill="#4682B4"/>
<path d="M802.28 61.16C800.62 61.49 798.61 61.89 796.44 62.32C795.14 60.49 793.96 58.83 792.67 57C793.96 55.18 795.14 53.51 796.2 52.01H801.55C803.91 54.55 805.08 57.28 802.28 61.16Z" fill="#4682B4"/>
<path d="M378 536.25C377.17 536.5 376.33 536.75 375.5 537" stroke="#4682B4" stroke-width="2" stroke-linecap="round" stroke-linejoin="round"/>
<path d="M373 576.25C375.17 576.83 377.33 577.42 379.5 578" stroke="#4682B4" stroke-width="2" stroke-linecap="round" stroke-linejoin="round"/>
<path d="M577 381H498" stroke="#4682B4" stroke-width="2" stroke-linecap="round" stroke-linejoin="round"/>
<path d="M1569.5 586.5C1568.19 589 1566.33 590.83 1563.5 591.5" stroke="#4682B4" stroke-width="2" stroke-linecap="round" stroke-linejoin="round"/>
<path d="M432.5 413.5C431.16 414.15 429.82 414.8 428.16 415.61C427.5 417.1 426.75 418.8 426 420.5" stroke="#4682B4" stroke-width="2" stroke-linecap="round" stroke-linejoin="round"/>
<path d="M453 479H456.24C458.09 477.26 460.07 475.41 461.94 473.65C462.1 470.83 463.73 468.48 462.18 465.41C460.68 462.45 459.2 459.78 455.98 459.11C453.43 458.57 450.67 459 447.47 459C445.74 460.94 443.78 463.14 442.01 465.13V473.03L447.99 479.01H452.51" stroke="#4682B4" stroke-width="2" stroke-linecap="round" stroke-linejoin="round"/>
<path d="M1087.5 531.5C1083.83 529.67 1080.16 527.85 1076.5 526C1073.15 524.31 1066.29 522.51 1063 522.5C1061 522.5 1059 522.47 1057 522.5C1050.88 522.6 1045.22 524.55 1040.06 527.6C1037.59 529.06 1035.13 530.42 1032.5 531.5" stroke="#4682B4" stroke-width="2" stroke-linecap="round" stroke-linejoin="round"/>
<path d="M1332.5 584.5C1335.14 585.58 1337.56 587.05 1340.06 588.38C1345.91 591.48 1352.06 594.12 1359 593.52C1360.32 593.41 1361.67 593.46 1363 593.52C1369.79 593.78 1375.78 591.37 1381.51 588.03C1383.44 586.91 1385.5 586.01 1387.5 585.01" stroke="#4682B4" stroke-width="2" stroke-linecap="round" stroke-linejoin="round"/>
<path d="M691.5 530.5C690 529.83 688.36 529.38 687.02 528.46C681.12 524.41 674.57 522.64 667.49 522.5C665.82 522.47 664.14 522.65 662.5 522.45C660.82 522.25 659.47 523.52 658 523.41C656.14 523.26 654.58 523.92 653.01 524.54C650.45 525.55 647.98 526.81 645.5 528.01C643.15 529.14 640.83 530.34 638.5 531.5" stroke="#4682B4" stroke-width="2" stroke-linecap="round" stroke-linejoin="round"/>
<path d="M925.5 519C919.75 519.03 914.48 520.43 909.45 523.41C905.43 525.79 902.37 529.15 899.66 532.62C897.45 535.47 895.63 538.96 895.4 542.99C895.3 544.79 894.23 546.55 894.5 548.5" stroke="#4682B4" stroke-width="2" stroke-linecap="round" stroke-linejoin="round"/>
<path d="M1118 519C1113.17 519.52 1108.72 520.88 1104.46 523.42C1095.3 528.89 1089.58 538.1 1089.51 548.37C1088.82 548.59 1088.16 548.79 1087.51 549" stroke="#4682B4" stroke-width="2" stroke-linecap="round" stroke-linejoin="round"/>
<path d="M613.25 336C613.5 336.83 613.75 337.67 614 338.5" stroke="#4682B4" stroke-width="2" stroke-linecap="round" stroke-linejoin="round"/>
<path d="M1225.5 548.5C1224.97 541.27 1222.58 534.8 1217.49 529.51C1214.93 526.86 1212.4 524.21 1209.02 522.46C1204.44 520.09 1199.62 518.99 1194.5 519" stroke="#4682B4" stroke-width="2" stroke-linecap="round" stroke-linejoin="round"/>
<path d="M530.5 518.5C527.17 519.33 523.79 520.04 520.51 521.04C517.31 522.01 514.38 523.58 512 526.01C508.63 529.45 505.09 532.59 503.36 537.46C502.07 541.1 500.93 544.69 500.5 548.51" stroke="#4682B4" stroke-width="2" stroke-linecap="round" stroke-linejoin="round"/>
<path d="M637.5 548.5C637.17 548 636.53 547.49 636.55 547C636.8 538.87 629.85 527.55 622.01 523.49C617.58 521.19 613.11 519.13 608 519" stroke="#4682B4" stroke-width="2" stroke-linecap="round" stroke-linejoin="round"/>
<path d="M1030.5 548.5C1030.53 542.79 1028.57 537.8 1025.57 532.96C1021.39 526.21 1015.25 522.41 1007.99 520.04C1006.16 519.44 1004.17 519.33 1002.25 519" stroke="#4682B4" stroke-width="2" stroke-linecap="round" stroke-linejoin="round"/>
<path d="M3.75 588C3.33 589.5 2.92 591 2.5 592.5" stroke="#4682B4" stroke-width="2" stroke-linecap="round" stroke-linejoin="round"/>
<path d="M1777.75 485C1777.33 486.17 1776.92 487.33 1776.5 488.5" stroke="#4682B4" stroke-width="2" stroke-linecap="round" stroke-linejoin="round"/>
<path d="M136.75 485C136.33 486.17 135.92 487.33 135.5 488.5" stroke="#4682B4" stroke-width="2" stroke-linecap="round" stroke-linejoin="round"/>
<path d="M247.5 211.5V221" stroke="#4682B4" stroke-width="2" stroke-linecap="round" stroke-linejoin="round"/>
<path d="M247.5 230.5V240.5" stroke="#4682B4" stroke-width="2" stroke-linecap="round" stroke-linejoin="round"/>
<path d="M717.5 11.5C713.48 13.8 709.25 15.74 705.5 18.5" stroke="#4682B4" stroke-width="2" stroke-linecap="round" stroke-linejoin="round"/>
<path d="M235 218.5C238.85 220.81 242.7 223.12 246.77 225.57C242.74 228.12 238.87 230.56 235 233" stroke="#4682B4" stroke-width="2" stroke-linecap="round" stroke-linejoin="round"/>
<path d="M693 11.5C701.17 16.17 709.33 20.83 717.5 25.5" stroke="#4682B4" stroke-width="2" stroke-linecap="round" stroke-linejoin="round"/>
<path d="M260.5 215.5C260.33 216.5 260.17 217.5 260.02 218.36C255.96 220.77 251.98 223.14 248 225.5" stroke="#4682B4" stroke-width="2" stroke-linecap="round" stroke-linejoin="round"/>
<path d="M704 19C700.17 21.17 696.33 23.33 692.5 25.5" stroke="#4682B4" stroke-width="2" stroke-linecap="round" stroke-linejoin="round"/>
<path d="M250 227C253.05 229.47 256.48 231.31 260 233" stroke="#4682B4" stroke-width="2" stroke-linecap="round" stroke-linejoin="round"/>
<path d="M549.5 56.75C548.67 56.83 547.83 56.92 547 57" stroke="#4682B4" stroke-width="2" stroke-linecap="round" stroke-linejoin="round"/>
<path d="M569 57C568.17 56.92 567.33 56.83 566.5 56.75" stroke="#4682B4" stroke-width="2" stroke-linecap="round" stroke-linejoin="round"/>
<path d="M572.5 56.75C571.67 56.83 570.83 56.92 570 57" stroke="#4682B4" stroke-width="2" stroke-linecap="round" stroke-linejoin="round"/>
<path d="M801.5 56.75C800.67 56.83 799.83 56.92 799 57" stroke="#4682B4" stroke-width="2" stroke-linecap="round" stroke-linejoin="round"/>
<path d="M214.75 261.5C214.83 262.33 214.92 263.17 215 264" stroke="#4682B4" stroke-width="2" stroke-linecap="round" stroke-linejoin="round"/>
<path d="M1480.5 574.75C1479.67 574.83 1478.83 574.92 1478 575" stroke="#4682B4" stroke-width="2" stroke-linecap="round" stroke-linejoin="round"/>
<path d="M1336 679C1335.17 678.92 1334.33 678.83 1333.5 678.75" stroke="#4682B4" stroke-width="2" stroke-linecap="round" stroke-linejoin="round"/>
</svg>
